<svg width="50" height="73" viewBox="0 0 50 73" fill="none" xmlns="http://www.w3.org/2000/svg">
<path d="M31.6 2H18.4C15.97 2 14 4.32812 14 7.2V9.8C14 12.6719 15.97 15 18.4 15H31.6C34.03 15 36 12.6719 36 9.8V7.2C36 4.32812 34.03 2 31.6 2Z" stroke="#E7E7E7" stroke-width="4" stroke-linecap="round" stroke-linejoin="round"/>
<path d="M37.0476 7H43.619C44.7809 7 45.8954 7.56192 46.7168 8.56208C47.5382 9.56229 48 10.9188 48 12.3333V65.6667C48 67.0811 47.5382 68.4379 46.7168 69.4379C45.8954 70.4379 44.7809 71 43.619 71H6.38095C5.21904 71 4.10474 70.4379 3.28314 69.4379C2.46158 68.4379 2 67.0811 2 65.6667V12.3333C2 10.9188 2.46158 9.56229 3.28314 8.56208C4.10474 7.56192 5.21904 7 6.38095 7H12.9524" stroke="#E7E7E7" stroke-width="4" stroke-linecap="round" stroke-linejoin="round"/>
<path d="M16 47.5L22.6667 53L36 31" stroke="#E7E7E7" stroke-width="4" stroke-linecap="round" stroke-linejoin="round"/>
</svg>
