<svg width="76" height="67" viewBox="0 0 76 67" fill="none" xmlns="http://www.w3.org/2000/svg">
<path d="M11.8215 33.5389C5.25647 33.5389 3.06812 24.7285 3.06812 24.7285L16.1982 2.70264H59.9652L73.0954 24.7285C73.0954 24.7285 70.907 33.5389 64.3419 33.5389M11.8215 33.5389C18.3866 33.5389 20.5749 24.7285 20.5749 24.7285C20.5749 24.7285 22.7633 33.5389 29.3283 33.5389C35.8934 33.5389 38.0817 24.7285 38.0817 24.7285C38.0817 24.7285 40.2701 33.5389 46.8351 33.5389C53.4002 33.5389 55.5885 24.7285 55.5885 24.7285C55.5885 24.7285 57.7769 33.5389 64.3419 33.5389M11.8215 33.5389V64.3751H40.2701M64.3419 33.5389V64.3751H55.5885M40.2701 64.3751V44.5518H55.5885V64.3751M40.2701 64.3751H55.5885M22.7633 18.1207L24.9516 11.513M38.0817 18.1207V11.513M51.2118 11.513L53.4002 18.1207M20.5749 44.5518V53.3621H31.5167V44.5518H20.5749Z" stroke="#E7E7E7" stroke-width="4" stroke-linecap="round"/>
</svg>
