<svg width="78" height="78" viewBox="0 0 78 78" fill="none" xmlns="http://www.w3.org/2000/svg">
<path d="M52.6122 47.551C65.1905 47.551 75.3877 37.354 75.3877 24.7755C75.3877 12.1969 65.1905 2 52.6122 2C40.0337 2 29.8367 12.1969 29.8367 24.7755C29.8367 37.354 40.0337 47.551 52.6122 47.551Z" stroke="#E7E7E7" stroke-width="4" stroke-linecap="round" stroke-linejoin="round"/>
<path d="M52.807 30.3933V19.1553" stroke="#E7E7E7" stroke-width="4" stroke-linecap="round" stroke-linejoin="round"/>
<path d="M2 61.2979L15.7954 72.7404C17.8244 74.4238 20.3821 75.3453 23.0233 75.3453H59.3931C61.991 75.3453 64.0973 73.2489 64.0973 70.663C64.0973 65.4907 59.8848 61.2979 54.6886 61.2979H29.4035" stroke="#E7E7E7" stroke-width="4" stroke-linecap="round" stroke-linejoin="round"/>
<path d="M18.9356 55.6793L23.1695 59.8936C25.5078 62.2209 29.299 62.2209 31.6373 59.8936C33.9756 57.5662 33.9756 53.7925 31.6373 51.4651L25.0651 44.9234C22.9477 42.8158 20.076 41.6318 17.0816 41.6318H2" stroke="#E7E7E7" stroke-width="4" stroke-linecap="round" stroke-linejoin="round"/>
</svg>
