<svg width="1366" height="650" viewBox="0 0 1366 650" fill="none" xmlns="http://www.w3.org/2000/svg">
<path d="M0 65.4417L32.6322 89.2795C65.2644 112.965 130.529 160.641 195.49 181.594C260.602 202.547 325.26 197.081 390.372 176.735C455.333 156.542 520.598 121.62 585.559 110.992C650.671 100.363 715.329 114.028 780.441 106.437C845.402 98.845 910.667 69.9967 975.628 49.1955C1040.74 28.5462 1105.4 15.7922 1170.51 8.95966C1235.47 2.12716 1300.74 1.21616 1333.37 0.608825L1366 0.15332V651.518H1333.37C1300.74 651.518 1235.47 651.518 1170.51 651.518C1105.4 651.518 1040.74 651.518 975.628 651.518C910.667 651.518 845.402 651.518 780.441 651.518C715.329 651.518 650.671 651.518 585.559 651.518C520.598 651.518 455.333 651.518 390.372 651.518C325.26 651.518 260.602 651.518 195.49 651.518C130.529 651.518 65.2644 651.518 32.6322 651.518H0V65.4417Z" fill="#FFD98F"/>
<path d="M0 183.872L32.6322 179.317C65.2644 174.762 130.529 165.652 195.49 171.27C260.602 176.736 325.26 197.081 390.372 198.6C455.333 200.118 520.598 182.809 585.559 186.605C650.671 190.401 715.329 215.301 780.441 229.118C845.402 243.087 910.667 246.124 975.628 216.212C1040.74 186.453 1105.4 123.594 1170.51 121.924C1235.47 120.102 1300.74 179.317 1333.37 208.924L1366 238.532V651.519H1333.37C1300.74 651.519 1235.47 651.519 1170.51 651.519C1105.4 651.519 1040.74 651.519 975.628 651.519C910.667 651.519 845.402 651.519 780.441 651.519C715.329 651.519 650.671 651.519 585.559 651.519C520.598 651.519 455.333 651.519 390.372 651.519C325.26 651.519 260.602 651.519 195.49 651.519C130.529 651.519 65.2644 651.519 32.6322 651.519H0V183.872Z" fill="#F4CA7B"/>
<path d="M0 153.505L32.6322 177.343C65.2644 201.029 130.529 248.704 195.49 261.61C260.602 274.516 325.26 252.652 390.372 248.097C455.333 243.542 520.598 256.296 585.559 276.945C650.671 297.747 715.329 326.595 780.441 308.83C845.402 291.218 910.667 226.84 975.628 225.929C1040.74 224.867 1105.4 287.118 1170.51 318.7C1235.47 350.433 1300.74 351.344 1333.37 351.951L1366 352.407V651.518H1333.37C1300.74 651.518 1235.47 651.518 1170.51 651.518C1105.4 651.518 1040.74 651.518 975.628 651.518C910.667 651.518 845.402 651.518 780.441 651.518C715.329 651.518 650.671 651.518 585.559 651.518C520.598 651.518 455.333 651.518 390.372 651.518C325.26 651.518 260.602 651.518 195.49 651.518C130.529 651.518 65.2644 651.518 32.6322 651.518H0V153.505Z" fill="#EABC66"/>
<path d="M0 249.16L32.6322 260.548C65.2644 271.935 130.529 294.71 195.49 309.134C260.602 323.558 325.26 329.632 390.372 336.464C455.333 343.297 520.598 350.889 585.559 357.266C650.671 363.491 715.329 368.653 780.441 366.527C845.402 364.553 910.667 355.444 975.628 343.601C1040.74 331.606 1105.4 317.03 1170.51 322.799C1235.47 328.569 1300.74 354.988 1333.37 368.046L1366 381.255V651.518H1333.37C1300.74 651.518 1235.47 651.518 1170.51 651.518C1105.4 651.518 1040.74 651.518 975.628 651.518C910.667 651.518 845.402 651.518 780.441 651.518C715.329 651.518 650.671 651.518 585.559 651.518C520.598 651.518 455.333 651.518 390.372 651.518C325.26 651.518 260.602 651.518 195.49 651.518C130.529 651.518 65.2644 651.518 32.6322 651.518H0V249.16Z" fill="#DFAD52"/>
<path d="M0 472.355L32.6322 471.14C65.2644 469.774 130.529 467.344 195.49 448.821C260.602 430.297 325.26 395.983 390.372 398.26C455.333 400.538 520.598 439.407 585.559 444.721C650.671 450.035 715.329 421.794 780.441 419.213C845.402 416.632 910.667 440.014 975.628 441.533C1040.74 443.051 1105.4 422.705 1170.51 403.574C1235.47 384.292 1300.74 366.072 1333.37 356.962L1366 347.852V651.518H1333.37C1300.74 651.518 1235.47 651.518 1170.51 651.518C1105.4 651.518 1040.74 651.518 975.628 651.518C910.667 651.518 845.402 651.518 780.441 651.518C715.329 651.518 650.671 651.518 585.559 651.518C520.598 651.518 455.333 651.518 390.372 651.518C325.26 651.518 260.602 651.518 195.49 651.518C130.529 651.518 65.2644 651.518 32.6322 651.518H0V472.355Z" fill="#D49F3E"/>
<path d="M0 522.46L32.6322 512.591C65.2644 502.722 130.529 482.983 195.49 486.02C260.602 489.057 325.26 514.868 390.372 522.156C455.333 529.596 520.598 518.36 585.559 517.146C650.671 515.931 715.329 524.434 780.441 509.554C845.402 494.674 910.667 456.109 975.628 438.496C1040.74 420.732 1105.4 423.768 1170.51 441.533C1235.47 459.145 1300.74 491.638 1333.37 507.732L1366 523.978V651.518H1333.37C1300.74 651.518 1235.47 651.518 1170.51 651.518C1105.4 651.518 1040.74 651.518 975.628 651.518C910.667 651.518 845.402 651.518 780.441 651.518C715.329 651.518 650.671 651.518 585.559 651.518C520.598 651.518 455.333 651.518 390.372 651.518C325.26 651.518 260.602 651.518 195.49 651.518C130.529 651.518 65.2644 651.518 32.6322 651.518H0V522.46Z" fill="#CA9028"/>
<path d="M0 587.748L32.6322 585.926C65.2644 584.256 130.529 580.612 195.49 570.287C260.602 559.963 325.26 542.654 390.372 535.062C455.333 527.47 520.598 529.596 585.559 540.224C650.671 550.853 715.329 569.984 780.441 568.769C845.402 567.554 910.667 545.69 975.628 540.224C1040.74 534.607 1105.4 545.235 1170.51 540.984C1235.47 536.58 1300.74 517.449 1333.37 507.732L1366 498.167V651.518H1333.37C1300.74 651.518 1235.47 651.518 1170.51 651.518C1105.4 651.518 1040.74 651.518 975.628 651.518C910.667 651.518 845.402 651.518 780.441 651.518C715.329 651.518 650.671 651.518 585.559 651.518C520.598 651.518 455.333 651.518 390.372 651.518C325.26 651.518 260.602 651.518 195.49 651.518C130.529 651.518 65.2644 651.518 32.6322 651.518H0V587.748Z" fill="#BF8209"/>
</svg>
