<svg width="59" height="59" viewBox="0 0 59 59" fill="none" xmlns="http://www.w3.org/2000/svg">
<path fill-rule="evenodd" clip-rule="evenodd" d="M29.5 59C45.7924 59 59 45.7924 59 29.5C59 13.2076 45.7924 0 29.5 0C13.2076 0 0 13.2076 0 29.5C0 45.7924 13.2076 59 29.5 59ZM9 29.5C9.27287 18.0425 18.5393 9 30 9C41.4607 9 50.7271 18.0425 51 29.5C51.2794 41.2335 41.7369 51 30 51C18.2631 51 8.72055 41.2335 9 29.5Z" fill="#FFAB07" fill-opacity="0.68"/>
<path d="M30 9C35.5695 9 40.911 11.2125 44.8492 15.1508C48.7875 19.089 51 24.4305 51 30C51 35.5695 48.7875 40.911 44.8492 44.8492C40.911 48.7875 35.5695 51 30 51C24.4305 51 19.089 48.7875 15.1508 44.8492C11.2125 40.911 9 35.5695 9 30C9 24.4305 11.2125 19.089 15.1508 15.1508C19.089 11.2125 24.4305 9 30 9ZM30 18C29.6191 17.9997 29.2423 18.0788 28.8938 18.2323C28.5452 18.3858 28.2324 18.6103 27.9755 18.8915C27.7186 19.1727 27.5232 19.5043 27.4017 19.8653C27.2802 20.2263 27.2354 20.6087 27.27 20.988L28.365 33.006C28.4075 33.41 28.598 33.7841 28.8999 34.0559C29.2018 34.3278 29.5937 34.4782 30 34.4782C30.4063 34.4782 30.7982 34.3278 31.1001 34.0559C31.402 33.7841 31.5925 33.41 31.635 33.006L32.727 20.988C32.7616 20.6089 32.7168 20.2268 32.5955 19.8661C32.4742 19.5053 32.2791 19.1737 32.0225 18.8926C31.7659 18.6114 31.4535 18.3869 31.1053 18.2332C30.7571 18.0795 30.3806 18.0001 30 18ZM30 42C30.6365 42 31.247 41.7471 31.6971 41.2971C32.1471 40.847 32.4 40.2365 32.4 39.6C32.4 38.9635 32.1471 38.353 31.6971 37.9029C31.247 37.4529 30.6365 37.2 30 37.2C29.3635 37.2 28.753 37.4529 28.3029 37.9029C27.8529 38.353 27.6 38.9635 27.6 39.6C27.6 40.2365 27.8529 40.847 28.3029 41.2971C28.753 41.7471 29.3635 42 30 42Z" fill="#FFAB07"/>
</svg>
