<svg width="932" height="932" viewBox="0 0 932 932" fill="none" xmlns="http://www.w3.org/2000/svg">
<circle cx="466" cy="466" r="466" fill="black"/>
<path d="M90.8306 452.175C90.8306 313.954 428.483 169.81 566.703 266.564L519.314 278.412L475.873 290.259C337.653 250.786 209.305 315.929 128.348 452.175C264.593 452.175 556.831 799.7 604.22 430.454L612.119 460.144C639.763 714.864 179.687 626.009 90.8306 452.175Z" fill="white"/>
<path d="M858.162 486.579C858.162 624.8 520.509 768.944 382.289 672.19L429.679 660.342L473.119 648.495C611.34 687.968 739.687 622.825 820.645 486.579C684.399 486.579 392.162 139.054 344.772 508.3L336.873 478.61C309.229 223.889 769.306 312.745 858.162 486.579Z" fill="white"/>
<circle cx="473.898" cy="466" r="130.72" stroke="white" stroke-width="15"/>
<circle cx="473.898" cy="465.999" r="47.3898" fill="white"/>
<circle cx="543.009" cy="424.533" r="29.6186" fill="black"/>
</svg>
