<svg width="31" height="30" viewBox="0 0 31 30" fill="none" xmlns="http://www.w3.org/2000/svg">
<path d="M28.6218 17.1429H17.9075V27.8571C17.9075 29.0357 16.9432 30 15.7646 30C14.5861 30 13.6218 29.0357 13.6218 27.8571V17.1429H2.90751C1.72893 17.1429 0.764648 16.1786 0.764648 15C0.764648 13.8214 1.72893 12.8571 2.90751 12.8571H13.6218V2.14286C13.6218 0.964286 14.5861 0 15.7646 0C16.9432 0 17.9075 0.964286 17.9075 2.14286V12.8571H28.6218C29.8004 12.8571 30.7646 13.8214 30.7646 15C30.7646 16.1786 29.8004 17.1429 28.6218 17.1429Z" fill="white"/>
</svg>
