<svg width="1589" height="150" viewBox="0 0 1589 150" fill="none" xmlns="http://www.w3.org/2000/svg">
<path d="M0 23.4008L17.7107 19.1008C35.2559 14.7008 70.6774 6.1008 105.933 4.9008C141.189 3.7008 176.611 10.1008 211.867 13.1008C247.123 16.1008 282.544 15.7008 317.8 17.4008C353.056 19.1008 388.477 22.7008 423.733 21.1008C458.989 19.4008 494.411 12.4008 529.667 7.4008C564.923 2.4008 600.344 -0.599187 635.6 0.100813C670.856 0.700813 706.277 5.10079 741.533 8.70079C776.789 12.4008 812.211 15.4008 847.467 18.1008C882.723 20.7008 918.144 23.1008 953.4 22.9008C988.656 22.7008 1024.08 20.1008 1059.33 15.1008C1094.59 10.1008 1130.01 2.70079 1165.27 0.700788C1200.52 -1.29921 1235.94 2.10081 1271.2 6.10081C1306.46 10.1008 1341.88 14.7008 1377.13 16.9008C1412.39 19.1008 1415.24 15.7008 1450.5 15.1008C1485.76 14.4008 1537.5 33.5 1571.29 26.9088L1589 23.4088V149.401H1571.29C1553.74 149.401 1518.32 149.401 1483.07 149.401C1447.81 149.401 1412.39 149.401 1377.13 149.401C1341.88 149.401 1306.46 149.401 1271.2 149.401C1235.94 149.401 1200.52 149.401 1165.27 149.401C1130.01 149.401 1094.59 149.401 1059.33 149.401C1024.08 149.401 988.656 149.401 953.4 149.401C918.144 149.401 882.723 149.401 847.467 149.401C812.211 149.401 776.789 149.401 741.533 149.401C706.277 149.401 670.856 149.401 635.6 149.401C600.344 149.401 564.923 149.401 529.667 149.401C494.411 149.401 458.989 149.401 423.733 149.401C388.477 149.401 353.056 149.401 317.8 149.401C282.544 149.401 247.123 149.401 211.867 149.401C176.611 149.401 141.189 149.401 105.933 149.401C70.6774 149.401 35.2559 149.401 17.7107 149.401H0V23.4008Z" fill="#B0690A"/>
</svg>
